<svg width="400" height="300" viewBox="0 0 400 300" xmlns="http://www.w3.org/2000/svg">
  <!-- 背景天空 -->
  <rect width="400" height="150" fill="#87CEEB"/>
  
  <!-- 湖水 -->
  <rect x="0" y="150" width="400" height="150" fill="#4682B4"/>
  
  <!-- 湖水波纹 -->
  <path d="M 0 160 Q 50 155 100 160 T 200 160 T 300 160 T 400 160" stroke="#5F9EA0" stroke-width="2" fill="none" opacity="0.6"/>
  <path d="M 0 180 Q 60 175 120 180 T 240 180 T 360 180 T 400 180" stroke="#5F9EA0" stroke-width="2" fill="none" opacity="0.4"/>
  <path d="M 0 200 Q 40 195 80 200 T 160 200 T 240 200 T 320 200 T 400 200" stroke="#5F9EA0" stroke-width="2" fill="none" opacity="0.3"/>
  
  <!-- 岸边 -->
  <path d="M 0 150 Q 100 140 200 150 T 400 150" fill="#8FBC8F"/>
  
  <!-- 码头 -->
  <rect x="150" y="140" width="100" height="20" fill="#8B4513"/>
  <rect x="145" y="160" width="5" height="30" fill="#654321"/>
  <rect x="155" y="160" width="5" height="25" fill="#654321"/>
  <rect x="240" y="160" width="5" height="25" fill="#654321"/>
  <rect x="250" y="160" width="5" height="30" fill="#654321"/>
  
  <!-- 钓鱼竿 -->
  <line x1="200" y1="140" x2="280" y2="80" stroke="#8B4513" stroke-width="3"/>
  
  <!-- 钓鱼线 -->
  <line x1="280" y1="80" x2="320" y2="200" stroke="#2F2F2F" stroke-width="1"/>
  
  <!-- 浮标 -->
  <circle cx="320" cy="200" r="3" fill="#FF4500"/>
  <circle cx="320" cy="200" r="1" fill="#FFFFFF"/>
  
  <!-- 鱼类 -->
  <!-- 鱼1 -->
  <ellipse cx="100" cy="220" rx="15" ry="8" fill="#FFD700"/>
  <polygon points="85,220 75,215 75,225" fill="#FFD700"/>
  <circle cx="105" cy="218" r="1" fill="#000000"/>
  
  <!-- 鱼2 -->
  <ellipse cx="300" cy="250" rx="12" ry="6" fill="#FF6347"/>
  <polygon points="288,250 280,246 280,254" fill="#FF6347"/>
  <circle cx="304" cy="248" r="1" fill="#000000"/>
  
  <!-- 鱼3 -->
  <ellipse cx="180" cy="270" rx="10" ry="5" fill="#32CD32"/>
  <polygon points="170,270 164,267 164,273" fill="#32CD32"/>
  <circle cx="183" cy="268" r="1" fill="#000000"/>
  
  <!-- 水草 -->
  <path d="M 50 300 Q 55 280 50 260 Q 45 240 50 220" stroke="#228B22" stroke-width="3" fill="none"/>
  <path d="M 60 300 Q 65 275 60 250 Q 55 225 60 200" stroke="#32CD32" stroke-width="2" fill="none"/>
  <path d="M 350 300 Q 355 285 350 270 Q 345 255 350 240" stroke="#228B22" stroke-width="3" fill="none"/>
  <path d="M 360 300 Q 365 280 360 260 Q 355 240 360 220" stroke="#32CD32" stroke-width="2" fill="none"/>
  
  <!-- 荷叶 -->
  <circle cx="120" cy="180" r="20" fill="#228B22" opacity="0.8"/>
  <path d="M 120 160 L 120 180" stroke="#32CD32" stroke-width="2"/>
  
  <circle cx="280" cy="170" r="15" fill="#228B22" opacity="0.8"/>
  <path d="M 280 155 L 280 170" stroke="#32CD32" stroke-width="2"/>
  
  <!-- 荷花 -->
  <circle cx="120" cy="180" r="8" fill="#FFB6C1"/>
  <circle cx="118" cy="178" r="3" fill="#FF69B4"/>
  <circle cx="122" cy="178" r="3" fill="#FF69B4"/>
  <circle cx="120" cy="182" r="3" fill="#FF69B4"/>
  
  <!-- 蜻蜓 -->
  <ellipse cx="250" cy="120" rx="8" ry="2" fill="#4169E1" opacity="0.6"/>
  <ellipse cx="250" cy="118" rx="6" ry="1" fill="#4169E1" opacity="0.6"/>
  <line x1="250" y1="120" x2="250" y2="125" stroke="#2F2F2F" stroke-width="1"/>
  
  <!-- 云朵 -->
  <circle cx="80" cy="50" r="15" fill="white" opacity="0.8"/>
  <circle cx="95" cy="50" r="20" fill="white" opacity="0.8"/>
  <circle cx="110" cy="50" r="15" fill="white" opacity="0.8"/>
  
  <circle cx="320" cy="40" r="12" fill="white" opacity="0.8"/>
  <circle cx="332" cy="40" r="16" fill="white" opacity="0.8"/>
  <circle cx="344" cy="40" r="12" fill="white" opacity="0.8"/>
  
  <!-- 太阳 -->
  <circle cx="350" cy="60" r="20" fill="#FFD700"/>
  <line x1="350" y1="25" x2="350" y2="40" stroke="#FFD700" stroke-width="2"/>
  <line x1="375" y1="60" x2="390" y2="60" stroke="#FFD700" stroke-width="2"/>
  <line x1="365" y1="45" x2="375" y2="35" stroke="#FFD700" stroke-width="2"/>
  <line x1="365" y1="75" x2="375" y2="85" stroke="#FFD700" stroke-width="2"/>
  
  <!-- 远山 -->
  <path d="M 0 150 Q 100 120 200 150 Q 300 130 400 150" fill="#9370DB" opacity="0.3"/>
  
  <!-- 水中倒影 -->
  <circle cx="350" cy="240" r="15" fill="#FFD700" opacity="0.3"/>
  
  <!-- 气泡 -->
  <circle cx="310" cy="190" r="2" fill="#FFFFFF" opacity="0.6"/>
  <circle cx="315" cy="185" r="1" fill="#FFFFFF" opacity="0.6"/>
  <circle cx="325" cy="195" r="1.5" fill="#FFFFFF" opacity="0.6"/>
  
  <!-- 文字标识 -->
  <text x="200" y="290" text-anchor="middle" font-family="Arial, sans-serif" font-size="16" fill="#FFFFFF">🎣 宁静湖泊 🎣</text>
</svg>